<svg width="14" height="14" viewBox="0 0 14 14" fill="none" xmlns="http://www.w3.org/2000/svg">
<path d="M1.75 7.45833C1.75 6.56087 2.45515 5.83333 3.325 5.83333H10.675C11.5448 5.83333 12.25 6.56087 12.25 7.45833V11.7917C12.25 12.6891 11.5448 13.4167 10.675 13.4167H3.325C2.45515 13.4167 1.75 12.6891 1.75 11.7917V7.45833Z" stroke="white" stroke-width="1.16667"/>
<path d="M2.91667 3.5C2.91667 3.82217 3.17783 4.08333 3.5 4.08333C3.82217 4.08333 4.08333 3.82217 4.08333 3.5H2.91667ZM5.83333 1.16667H8.16667V1.19209e-07H5.83333V1.16667ZM9.91667 2.91667V5.83333H11.0833V2.91667H9.91667ZM4.08333 3.5V2.91662H2.91667V3.5H4.08333ZM8.16667 1.16667C9.13317 1.16667 9.91667 1.95017 9.91667 2.91667H11.0833C11.0833 1.30584 9.7775 1.19209e-07 8.16667 1.19209e-07V1.16667ZM5.83333 1.19209e-07C4.22252 1.19209e-07 2.91667 1.30578 2.91667 2.91662H4.08333C4.08333 1.95014 4.86682 1.16667 5.83333 1.16667V1.19209e-07Z" fill="white"/>
<path d="M7 8.75V10.5" stroke="white" stroke-width="1.16667" stroke-linecap="round"/>
</svg>
